<?xml version="1.0" encoding="utf-8"?>
<!-- Generator: Adobe Illustrator 16.0.3, SVG Export Plug-In . SVG Version: 6.00 Build 0)  -->
<!DOCTYPE svg PUBLIC "-//W3C//DTD SVG 1.1//EN" "http://www.w3.org/Graphics/SVG/1.1/DTD/svg11.dtd">
<svg version="1.1" id="Õ_xBA__x2264__x201E__x5F_1"
	 xmlns="http://www.w3.org/2000/svg" xmlns:xlink="http://www.w3.org/1999/xlink" x="0px" y="0px" width="1024px" height="768px"
	 viewBox="0 0 1024 768" enable-background="new 0 0 1024 768" xml:space="preserve">
<g>
	<defs>
		<rect id="SVGID_1_" width="1024" height="768"/>
	</defs>
	<clipPath id="SVGID_2_">
		<use xlink:href="#SVGID_1_"  overflow="visible"/>
	</clipPath>
	<path clip-path="url(#SVGID_2_)" fill="#6BC276" d="M592.645-354.032c0,1.523,1.234,2.753,2.753,2.753
		c1.525,0,2.76-1.23,2.76-2.753c0-1.521-1.234-2.756-2.76-2.756C593.879-356.789,592.645-355.554,592.645-354.032z M597.851-417.286
		v52.506c4.91,1.11,8.574,5.502,8.574,10.748c0,6.085-4.937,11.023-11.027,11.023c-6.084,0-11.02-4.938-11.02-11.023
		c0-5.026,3.364-9.265,7.961-10.59v-52.664H597.851z M853.86-490.379c0,1.521,1.232,2.752,2.751,2.752
		c1.52,0,2.758-1.231,2.758-2.752c0-1.525-1.238-2.758-2.758-2.758C855.093-493.137,853.86-491.904,853.86-490.379z
		 M859.678-526.074v25.102c4.593,1.324,7.954,5.567,7.954,10.594c0,6.086-4.932,11.023-11.021,11.023
		c-6.082,0-11.022-4.937-11.022-11.023c0-5.246,3.664-9.638,8.574-10.751v-24.944H859.678z M1038.481-415.984
		c1.522,0,2.749-1.23,2.749-2.754c0-1.521-1.227-2.753-2.749-2.753c-1.525,0-2.759,1.231-2.759,2.753
		C1035.723-417.214,1036.956-415.984,1038.481-415.984z M1041.542-526.074v66.974v7.991v21.782
		c4.597,1.323,7.961,5.562,7.961,10.589c0,6.088-4.938,11.025-11.021,11.025c-6.094,0-11.022-4.934-11.022-11.025
		c0-5.246,3.659-9.635,8.57-10.748v-21.623v-7.991l0.004-66.974H1041.542z M1079.808,99.31c0,1.521,1.229,2.754,2.753,2.754
		c1.522,0,2.758-1.233,2.758-2.754c0-1.525-1.235-2.753-2.758-2.753C1081.037,96.557,1079.808,97.785,1079.808,99.31z
		 M1087.809-150.874l-2.179,2.184l-0.009,237.41c0.766,0.221,1.499,0.521,2.188,0.894v19.394c-1.561,0.844-3.349,1.324-5.248,1.324
		c-6.089,0-11.019-4.934-11.019-11.022c0-5.248,3.66-9.634,8.566-10.748l0.004-237.252l7.696-7.695V-150.874z M1072.588,184.064
		c0,1.519,1.232,2.752,2.75,2.752c1.524,0,2.762-1.233,2.762-2.752c0-1.523-1.237-2.758-2.762-2.758
		C1073.82,181.306,1072.588,182.541,1072.588,184.064z M1119.165-93.678l-40.759,40.762l-0.004,226.388
		c4.6,1.324,7.966,5.566,7.966,10.592c0,6.084-4.937,11.02-11.03,11.02c-6.082,0-11.017-4.936-11.017-11.02
		c0-5.248,3.662-9.64,8.572-10.751V-52.916l46.271-46.271V-93.678z M917.932,937.805c1.522,0,2.757-1.234,2.757-2.756
		c0-1.522-1.234-2.76-2.757-2.76c-1.524,0-2.756,1.237-2.756,2.76C915.176,936.57,916.407,937.805,917.932,937.805z
		 M1119.165,747.666h-13.855L925.729,927.253c1.988,1.994,3.226,4.75,3.226,7.792c0,6.087-4.938,11.022-11.022,11.022
		c-6.087,0-11.027-4.936-11.027-11.022c0-6.088,4.94-11.023,11.027-11.023c1.615,0,3.153,0.354,4.537,0.975l182.841-182.838h13.855
		V747.666z M879.355,937.805c1.519,0,2.751-1.234,2.751-2.76c0-1.519-1.232-2.756-2.751-2.756c-1.527,0-2.76,1.237-2.76,2.756
		C876.596,936.57,877.828,937.805,879.355,937.805z M1119.165,725.624h-30.39L887.146,927.253c1.999,1.994,3.228,4.75,3.228,7.792
		c0,6.087-4.935,11.022-11.019,11.022c-6.093,0-11.027-4.936-11.027-11.022c0-6.088,4.935-11.023,11.027-11.023
		c1.616,0,3.15,0.354,4.533,0.975l204.887-204.883h30.39V725.624z M840.775,937.805c1.522,0,2.756-1.234,2.756-2.76
		c0-1.519-1.233-2.756-2.756-2.756c-1.523,0-2.757,1.237-2.757,2.756C838.019,936.57,839.252,937.805,840.775,937.805z
		 M1119.165,703.578h-46.921L848.566,927.253c1.997,1.994,3.228,4.75,3.228,7.792c0,6.087-4.932,11.022-11.019,11.022
		c-6.088,0-11.021-4.936-11.021-11.022c0-6.088,4.933-11.023,11.021-11.023c1.613,0,3.154,0.354,4.531,0.975l226.938-226.929h46.921
		V703.578z M802.193,937.805c1.527,0,2.762-1.234,2.762-2.76c0-1.519-1.234-2.756-2.762-2.756c-1.519,0-2.751,1.237-2.751,2.756
		C799.442,936.57,800.675,937.805,802.193,937.805z M1119.165,681.533h-63.454l-245.716,245.72c1.988,1.994,3.228,4.75,3.228,7.792
		c0,6.087-4.937,11.022-11.029,11.022c-6.086,0-11.019-4.936-11.019-11.022c0-6.088,4.933-11.023,11.019-11.023
		c1.621,0,3.159,0.354,4.542,0.975l248.976-248.974h63.454V681.533z M123.879,944.476c-1.52,0-2.754,1.235-2.754,2.757
		c0,1.522,1.234,2.756,2.754,2.756c1.524,0,2.756-1.233,2.756-2.756C126.635,945.711,125.403,944.476,123.879,944.476z
		 M123.879,936.21c6.089,0,11.024,4.938,11.024,11.022c0,6.092-4.935,11.025-11.024,11.025c-1.617,0-3.154-0.352-4.536-0.974
		l-182.841,182.842h-309.123h-7.995h-124.917v-5.513h124.917h7.995h309.123l179.587-179.588c-2-1.991-3.232-4.747-3.232-7.793
		C112.857,941.147,117.792,936.21,123.879,936.21z M162.458,944.476c-1.521,0-2.755,1.235-2.755,2.757
		c0,1.522,1.233,2.756,2.755,2.756c1.521,0,2.754-1.233,2.754-2.756C165.212,945.711,163.979,944.476,162.458,944.476z
		 M162.458,936.21c6.086,0,11.024,4.938,11.024,11.022c0,6.092-4.938,11.025-11.024,11.025c-1.616,0-3.152-0.352-4.533-0.974
		l-204.891,204.884h-325.656h-7.995h-124.917v-5.51h124.917h7.995h325.656l201.632-201.633c-1.996-1.991-3.229-4.747-3.229-7.793
		C151.438,941.147,156.374,936.21,162.458,936.21z M201.04,944.476c-1.527,0-2.759,1.235-2.759,2.757
		c0,1.522,1.232,2.756,2.759,2.756c1.519,0,2.751-1.233,2.751-2.756C203.791,945.711,202.559,944.476,201.04,944.476z
		 M201.036,936.21c6.088,0,11.022,4.938,11.022,11.022c0,6.092-4.935,11.025-11.022,11.025c-1.62,0-3.154-0.352-4.535-0.974
		l-226.934,226.93h-342.188h-7.995h-124.917v-5.515h124.917h7.995h342.188l223.678-223.674c-2-1.991-3.228-4.747-3.228-7.793
		C190.017,941.147,194.95,936.21,201.036,936.21z M239.616,944.476c-1.521,0-2.76,1.235-2.76,2.757c0,1.522,1.238,2.756,2.76,2.756
		c1.519,0,2.753-1.233,2.753-2.756C242.369,945.711,241.134,944.476,239.616,944.476z M239.613,936.21
		c6.091,0,11.027,4.938,11.027,11.022c0,6.092-4.937,11.025-11.027,11.025c-1.615,0-3.152-0.352-4.533-0.974l-248.978,248.975
		h-358.724h-7.995h-124.917v-5.511h124.917h7.995h358.724L231.82,955.025c-1.993-1.991-3.228-4.747-3.228-7.793
		C228.593,941.147,233.529,936.21,239.613,936.21z M293.639,910.281c1.519,0,2.757-1.235,2.757-2.753
		c0-1.526-1.238-2.756-2.757-2.756c-1.524,0-2.756,1.229-2.756,2.756C290.883,909.046,292.115,910.281,293.639,910.281z
		 M293.639,918.547c-5.246,0-9.636-3.664-10.749-8.574H106.258l-181.866,181.87h-429.924v-5.511h429.924l181.866-181.868h176.79
		c1.324-4.598,5.564-7.963,10.591-7.963c6.088,0,11.02,4.939,11.02,11.027C304.659,913.615,299.727,918.547,293.639,918.547z
		 M-37.028,1003.971c1.519,0,2.753-1.233,2.753-2.756c0-1.521-1.235-2.757-2.753-2.757c-1.523,0-2.756,1.235-2.756,2.757
		C-39.784,1002.737-38.551,1003.971-37.028,1003.971z M-37.028,1012.238c-1.62,0-3.155-0.352-4.539-0.972l-61.599,61.594h-402.366
		v-5.513h402.366l58.342-58.337c-1.994-1.999-3.228-4.752-3.228-7.796c0-6.089,4.936-11.023,11.023-11.023
		c6.085,0,11.021,4.935,11.021,11.023C-26.007,1007.303-30.943,1012.238-37.028,1012.238z M293.639,866.191
		c1.519,0,2.757-1.233,2.757-2.756s-1.238-2.755-2.757-2.755c-1.524,0-2.756,1.232-2.756,2.755S292.115,866.191,293.639,866.191z
		 M293.639,874.459c-5.246,0-9.636-3.662-10.749-8.574H89.728l-93.691,93.69h-60.623l-77.156,77.153h-363.791v-5.508h363.791
		l77.156-77.155h60.623l93.691-93.692h193.32c1.324-4.599,5.564-7.958,10.591-7.958c6.088,0,11.02,4.933,11.02,11.021
		C304.659,869.522,299.727,874.459,293.639,874.459z M-86.631,941.511c1.523,0,2.755-1.235,2.755-2.757
		c0-1.521-1.232-2.754-2.755-2.754c-1.521,0-2.755,1.233-2.755,2.754C-89.387,940.275-88.152,941.511-86.631,941.511z
		 M-86.631,949.777c-1.615,0-3.15-0.351-4.536-0.973l-61.597,61.596h-266.32h-64.847h-21.601v-5.51h21.601h64.847h266.32
		l58.341-58.34c-1.995-1.998-3.229-4.754-3.229-7.797c0-6.086,4.934-11.02,11.021-11.02c6.09,0,11.023,4.934,11.023,11.02
		C-75.608,944.843-80.542,949.777-86.631,949.777z M-31.519,899.256c1.521,0,2.755-1.229,2.755-2.755
		c0-1.52-1.233-2.753-2.755-2.753c-1.521,0-2.756,1.233-2.756,2.753C-34.275,898.027-33.04,899.256-31.519,899.256z
		 M-31.519,907.528c-5.245,0-9.635-3.668-10.75-8.577h-44.363l-88.177,88.179h-330.724v-5.511h330.724l88.177-88.178h44.521
		c1.328-4.596,5.565-7.96,10.592-7.96c6.087,0,11.021,4.934,11.021,11.02C-20.498,902.59-25.431,907.528-31.519,907.528z
		 M-3.963,871.703c1.523,0,2.755-1.235,2.755-2.757c0-1.521-1.232-2.755-2.755-2.755c-1.521,0-2.755,1.234-2.755,2.755
		C-6.718,870.468-5.484,871.703-3.963,871.703z M-3.963,879.97c-5.246,0-9.633-3.666-10.748-8.573h-88.455l-88.175,88.179h-314.191
		v-5.51h314.191l88.175-88.181h88.613c1.323-4.598,5.563-7.96,10.589-7.96c6.088,0,11.023,4.936,11.023,11.021
		C7.06,875.035,2.125,879.97-3.963,879.97z M-26.007,816.59c1.521,0,2.754-1.229,2.754-2.753c0-1.524-1.233-2.756-2.754-2.756
		c-1.521,0-2.756,1.231-2.756,2.756C-28.764,815.36-27.528,816.59-26.007,816.59z M-26.007,824.86
		c-5.247,0-9.634-3.667-10.751-8.573h-60.894l-110.223,110.221h-297.657v-5.51h297.657l110.223-110.224h61.053
		c1.328-4.6,5.566-7.961,10.592-7.961c6.09,0,11.022,4.936,11.022,11.023C-14.985,819.924-19.917,824.86-26.007,824.86z
		 M-196.853,844.145c1.523,0,2.755-1.231,2.755-2.753s-1.232-2.755-2.755-2.755c-1.522,0-2.755,1.233-2.755,2.755
		S-198.375,844.145-196.853,844.145z M-196.853,852.415c-5.245,0-9.637-3.664-10.749-8.575H-268.5v44.091h-237.033v-5.513h231.523
		v-44.091h66.564c1.327-4.597,5.566-7.959,10.592-7.959c6.087,0,11.023,4.938,11.023,11.023
		C-185.83,847.479-190.766,852.415-196.853,852.415z M-163.785,816.59c1.52,0,2.756-1.229,2.756-2.753
		c0-1.524-1.237-2.756-2.756-2.756c-1.522,0-2.754,1.231-2.754,2.756C-166.539,815.36-165.307,816.59-163.785,816.59z
		 M-163.785,824.86c-5.247,0-9.636-3.667-10.753-8.573h-104.984l-44.088,44.086l-181.923,0.001v-5.511h181.923l44.088-44.089
		h105.142c1.329-4.6,5.567-7.961,10.595-7.961c6.084,0,11.02,4.936,11.02,11.023C-152.765,819.924-157.701,824.86-163.785,824.86z
		 M-130.719,781.074c1.523,0,2.756-1.229,2.756-2.756c0-1.52-1.233-2.753-2.756-2.753s-2.756,1.233-2.756,2.753
		C-133.475,779.845-132.242,781.074-130.719,781.074z M-130.719,789.342c-5.246,0-9.638-3.664-10.751-8.574h-129.478l-44.089,44.093
		l-190.495-0.005v-5.511h190.495l44.089-44.088h129.637c1.325-4.598,5.564-7.959,10.592-7.959c6.087,0,11.021,4.932,11.021,11.021
		C-119.698,784.406-124.631,789.342-130.719,789.342z M293.639,822.101c1.519,0,2.757-1.229,2.757-2.753
		c0-1.522-1.238-2.758-2.757-2.758c-1.524,0-2.756,1.235-2.756,2.758C290.883,820.871,292.115,822.101,293.639,822.101z
		 M293.639,830.368c-5.246,0-9.636-3.664-10.749-8.57H106.258l-77.154-77.157H-268.5l-66.133,66.134h-170.899v-5.512h170.899
		l66.133-66.133H29.104l77.154,77.157h176.79c1.324-4.599,5.564-7.966,10.591-7.966c6.088,0,11.02,4.937,11.02,11.023
		C304.659,825.431,299.727,830.368,293.639,830.368z M216.483,778.012c1.523,0,2.756-1.233,2.756-2.755
		c0-1.52-1.233-2.753-2.756-2.753s-2.757,1.233-2.757,2.753C213.726,776.778,214.96,778.012,216.483,778.012z M216.483,786.278
		c-5.028,0-9.262-3.36-10.593-7.96h-94.12l-60.623-60.621h-336.18l-49.601,49.601h-170.899v-5.515h170.899l49.601-49.599h336.18
		l60.623,60.624h93.964c1.111-4.909,5.501-8.572,10.749-8.572c6.087,0,11.023,4.934,11.023,11.021
		C227.506,781.345,222.57,786.278,216.483,786.278z M-367.698,733.924c1.521,0,2.756-1.231,2.756-2.756
		c0-1.523-1.235-2.755-2.756-2.755c-1.522,0-2.756,1.231-2.756,2.755C-370.455,732.692-369.221,733.924-367.698,733.924z
		 M-378.449,728.718c1.114-4.911,5.503-8.574,10.75-8.574c6.088,0,11.021,4.938,11.021,11.024c0,6.088-4.934,11.021-11.021,11.021
		c-5.026,0-9.266-3.359-10.591-7.959h-127.243v-5.513H-378.449z M288.128,728.413c1.524,0,2.755-1.233,2.755-2.757
		c0-1.521-1.231-2.756-2.755-2.756c-1.523,0-2.757,1.235-2.757,2.756C285.371,727.18,286.605,728.413,288.128,728.413z
		 M-477.921,689.529h52.825h564.424l33.063,33.066h105.144c1.327-4.599,5.564-7.959,10.593-7.959c6.086,0,11.023,4.932,11.023,11.02
		c0,6.089-4.937,11.025-11.023,11.025c-5.246,0-9.637-3.664-10.748-8.575H172.391l-33.063-33.064h-564.424h-52.825h-27.611v-5.513
		H-477.921z M354.261,678.812c1.524,0,2.755-1.233,2.755-2.755c0-1.522-1.231-2.756-2.755-2.756c-1.523,0-2.755,1.233-2.755,2.756
		C351.506,677.579,352.738,678.812,354.261,678.812z M-505.532,672.995H343.67c1.325-4.597,5.567-7.961,10.591-7.961
		c6.088,0,11.023,4.934,11.023,11.023c0,6.091-4.935,11.019-11.023,11.019c-5.245,0-9.637-3.662-10.749-8.57h-849.045V672.995z
		 M354.261,634.724c1.524,0,2.755-1.235,2.755-2.757c0-1.522-1.231-2.758-2.755-2.758c-1.523,0-2.755,1.235-2.755,2.758
		C351.506,633.488,352.738,634.724,354.261,634.724z M354.261,642.99c-5.245,0-9.637-3.664-10.749-8.575h-71.919l-22.044-22.042
		h-93.686l-44.093,44.088h-617.302v-5.512H111.77l44.093-44.087h93.686l22.044,22.04h72.077c1.325-4.597,5.567-7.959,10.591-7.959
		c6.088,0,11.023,4.938,11.023,11.023C365.284,638.054,360.35,642.99,354.261,642.99z M354.261,590.634
		c1.524,0,2.755-1.231,2.755-2.756c0-1.521-1.231-2.755-2.755-2.755c-1.523,0-2.755,1.233-2.755,2.755
		C351.506,589.402,352.738,590.634,354.261,590.634z M354.261,598.899c-5.245,0-9.637-3.664-10.749-8.572H150.35l-49.602,49.599
		h-606.28v-5.511h606.28l49.602-49.597h193.32c1.325-4.602,5.567-7.963,10.591-7.963c6.088,0,11.023,4.936,11.023,11.022
		C365.284,593.964,360.35,598.899,354.261,598.899z M354.261,546.545c1.524,0,2.755-1.237,2.755-2.757
		c0-1.518-1.231-2.756-2.755-2.756c-1.523,0-2.755,1.238-2.755,2.756C351.506,545.308,352.738,546.545,354.261,546.545z
		 M354.261,554.813c-5.245,0-9.637-3.668-10.749-8.579h-5.786l-27.557,27.559H144.837l-49.601,49.604h-451.914l-11.021,5.506
		h-137.834v-5.506h137.834l11.021-5.511H95.237l49.601-49.604h165.332l27.557-27.554h5.943c1.325-4.598,5.567-7.96,10.591-7.96
		c6.088,0,11.023,4.934,11.023,11.02C365.284,549.875,360.35,554.813,354.261,554.813z M354.261,502.453
		c1.524,0,2.755-1.228,2.755-2.754c0-1.52-1.231-2.753-2.755-2.753c-1.523,0-2.755,1.233-2.755,2.753
		C351.506,501.226,352.738,502.453,354.261,502.453z M354.261,510.721c-3.046,0-5.801-1.229-7.79-3.228l-47.32,47.32H139.328
		l-55.111,55.109h-589.749v-5.511H84.217l55.111-55.111h159.823l45.063-45.063c-0.625-1.385-0.975-2.92-0.975-4.538
		c0-6.087,4.934-11.021,11.022-11.021s11.023,4.934,11.023,11.021C365.284,505.789,360.35,510.721,354.261,510.721z
		 M282.616,518.988c1.523,0,2.755-1.233,2.755-2.753c0-1.524-1.232-2.76-2.755-2.76c-1.519,0-2.755,1.235-2.755,2.76
		C279.861,517.755,281.098,518.988,282.616,518.988z M282.616,527.256c-5.245,0-9.638-3.665-10.749-8.571H155.863l-77.158,77.153
		h-584.237v-5.511H78.705l77.158-77.156h116.163c1.324-4.6,5.564-7.958,10.591-7.958c6.088,0,11.023,4.933,11.023,11.022
		C293.639,522.323,288.705,527.256,282.616,527.256z M282.616,474.9c1.523,0,2.755-1.235,2.755-2.756
		c0-1.521-1.232-2.755-2.755-2.755c-1.519,0-2.755,1.233-2.755,2.755C279.861,473.665,281.098,474.9,282.616,474.9z
		 M282.616,483.168c-5.245,0-9.638-3.666-10.749-8.574h-93.965l-99.198,99.199h-584.237v-5.511H78.705l99.198-99.199h94.123
		c1.324-4.598,5.564-7.961,10.591-7.961c6.088,0,11.023,4.936,11.023,11.022C293.639,478.232,288.705,483.168,282.616,483.168z
		 M-224.41,541.032c1.523,0,2.758-1.23,2.758-2.751c0-1.525-1.235-2.757-2.758-2.757c-1.519,0-2.753,1.231-2.753,2.757
		C-227.163,539.802-225.929,541.032-224.41,541.032z M-224.41,549.301c-5.246,0-9.633-3.666-10.75-8.572h-49.873l-22.046,16.533
		h-198.454v-5.515h198.454l22.046-16.529h50.03c1.329-4.603,5.567-7.962,10.592-7.962c6.092,0,11.023,4.935,11.023,11.025
		C-213.387,544.365-218.318,549.301-224.41,549.301z M-185.83,541.032c1.52,0,2.756-1.23,2.756-2.751
		c0-1.525-1.237-2.757-2.756-2.757c-1.523,0-2.756,1.231-2.756,2.757C-188.586,539.802-187.353,541.032-185.83,541.032z
		 M-185.83,549.301c-6.087,0-11.025-4.936-11.025-11.02c0-3.046,1.235-5.803,3.229-7.799l-25.273-25.27h-82.667l-27.553,27.556
		h-176.412v-5.513h176.412l27.553-27.557h82.667l28.533,28.531c1.382-0.626,2.919-0.975,4.536-0.975
		c6.088,0,11.022,4.935,11.022,11.025C-174.808,544.365-179.742,549.301-185.83,549.301z M-147.253,541.032
		c1.523,0,2.755-1.23,2.755-2.751c0-1.525-1.232-2.757-2.755-2.757s-2.754,1.231-2.754,2.757
		C-150.007,539.802-148.776,541.032-147.253,541.032z M-147.253,549.301c-6.088,0-11.024-4.936-11.024-11.02
		c0-3.046,1.233-5.803,3.228-7.799l-41.803-41.804h-126.756l-27.557,27.557h-154.366v-5.515h154.366l27.557-27.553h126.756
		l45.063,45.062c1.38-0.629,2.92-0.975,4.536-0.975c6.088,0,11.022,4.935,11.022,11.025
		C-136.231,544.365-141.165,549.301-147.253,549.301z M-108.678,541.032c1.524,0,2.759-1.23,2.759-2.751
		c0-1.525-1.235-2.757-2.759-2.757c-1.519,0-2.751,1.231-2.751,2.757C-111.429,539.802-110.196,541.032-108.678,541.032z
		 M-108.678,549.301c-6.082,0-11.02-4.936-11.02-11.02c0-3.046,1.234-5.803,3.228-7.799l-69.36-69.36h-137.779l-38.576,38.577
		h-143.347v-5.513h143.347l38.576-38.575h137.779l72.619,72.619c1.383-0.626,2.918-0.975,4.534-0.975
		c6.09,0,11.025,4.935,11.025,11.025C-97.652,544.365-102.588,549.301-108.678,549.301z M-70.097,541.032
		c1.523,0,2.756-1.23,2.756-2.751c0-1.525-1.233-2.757-2.756-2.757s-2.756,1.231-2.756,2.757
		C-72.853,539.802-71.62,541.032-70.097,541.032z M-70.099,549.301c-6.085,0-11.021-4.936-11.021-11.02
		c0-3.046,1.233-5.803,3.227-7.799l-91.404-91.404h-165.335l-44.087,44.09h-126.812v-5.513h126.812l44.087-44.088h165.335
		l94.665,94.663c1.385-0.626,2.921-0.975,4.534-0.975c6.088,0,11.025,4.935,11.025,11.025
		C-59.073,544.365-64.01,549.301-70.099,549.301z M-395.254,441.833c1.523,0,2.754-1.233,2.754-2.755
		c0-1.521-1.231-2.756-2.754-2.756c-1.522,0-2.756,1.235-2.756,2.756C-398.01,440.6-396.776,441.833-395.254,441.833z
		 M-405.846,436.018c1.327-4.6,5.566-7.965,10.592-7.965c6.085,0,11.021,4.938,11.021,11.025c0,6.087-4.936,11.021-11.021,11.021
		c-5.247,0-9.636-3.664-10.75-8.572h-91.01c-0.951,4.193-4.292,7.481-8.518,8.347v-9.178c0.331-0.455,0.524-1.014,0.524-1.617
		c0-0.604-0.194-1.163-0.524-1.618v-9.181c4.018,0.824,7.234,3.834,8.362,7.738H-405.846z M-320.853,411.522
		c0-1.523-1.235-2.76-2.757-2.76c-1.521,0-2.755,1.236-2.755,2.76c0,1.524,1.234,2.753,2.755,2.753
		C-322.088,414.275-320.853,413.047-320.853,411.522z M-312.587,411.522c0,6.088-4.935,11.021-11.022,11.021
		c-5.246,0-9.636-3.664-10.749-8.572h-171.174v-5.515h171.33c1.329-4.598,5.567-7.959,10.593-7.959
		C-317.522,400.498-312.587,405.434-312.587,411.522z M-320.853,372.942c0-1.521-1.235-2.752-2.757-2.752
		c-1.521,0-2.755,1.23-2.755,2.752c0,1.524,1.234,2.756,2.755,2.756C-322.088,375.698-320.853,374.467-320.853,372.942z
		 M-312.587,372.942c0,6.088-4.935,11.025-11.022,11.025c-5.246,0-9.636-3.664-10.749-8.576h-171.174v-5.511h171.33
		c1.329-4.6,5.567-7.959,10.593-7.959C-317.522,361.922-312.587,366.854-312.587,372.942z M-320.853,334.367
		c0-1.524-1.235-2.757-2.757-2.757c-1.521,0-2.755,1.232-2.755,2.757c0,1.52,1.234,2.755,2.755,2.755
		C-322.088,337.122-320.853,335.887-320.853,334.367z M-312.587,334.367c0,6.082-4.935,11.02-11.022,11.02
		c-5.246,0-9.636-3.664-10.749-8.575h-171.174v-5.507h171.33c1.329-4.6,5.567-7.962,10.593-7.962
		C-317.522,323.343-312.587,328.277-312.587,334.367z M-320.853,295.787c0-1.521-1.235-2.753-2.757-2.753
		c-1.521,0-2.755,1.232-2.755,2.753c0,1.526,1.234,2.755,2.755,2.755C-322.088,298.542-320.853,297.313-320.853,295.787z
		 M-312.587,295.787c0,6.087-4.935,11.023-11.022,11.023c-5.246,0-9.636-3.666-10.749-8.574h-171.174v-5.509h171.33
		c1.329-4.601,5.567-7.962,10.593-7.962C-317.522,284.766-312.587,289.698-312.587,295.787z M-320.853,257.21
		c0-1.521-1.235-2.756-2.757-2.756c-1.521,0-2.755,1.235-2.755,2.756c0,1.522,1.234,2.754,2.755,2.754
		C-322.088,259.964-320.853,258.732-320.853,257.21z M-312.587,257.21c0,6.084-4.935,11.022-11.022,11.022
		c-5.246,0-9.636-3.665-10.749-8.576h-171.174v-5.507h171.33c1.329-4.597,5.567-7.961,10.593-7.961
		C-317.522,246.188-312.587,251.122-312.587,257.21z M282.616,430.808c1.523,0,2.755-1.231,2.755-2.755
		c0-1.52-1.232-2.754-2.755-2.754c-1.519,0-2.755,1.234-2.755,2.754C279.861,429.576,281.098,430.808,282.616,430.808z
		 M282.616,439.078c-5.245,0-9.638-3.664-10.749-8.572h-77.432L89.728,535.218H-31.519l-264.535-264.536v-33.067h-209.479v-5.513
		h214.989v38.58l259.025,259.023H89.728L194.436,424.99h77.589c1.324-4.597,5.564-7.955,10.591-7.955
		c6.088,0,11.023,4.93,11.023,11.018C293.639,434.145,288.705,439.078,282.616,439.078z M282.616,353.656
		c1.523,0,2.755-1.234,2.755-2.756c0-1.523-1.232-2.758-2.755-2.758c-1.519,0-2.755,1.234-2.755,2.758
		C279.861,352.422,281.098,353.656,282.616,353.656z M282.616,361.922c-1.616,0-3.155-0.347-4.537-0.973l-45.062,45.062h-49.604
		l-99.196,99.202H-37.028l-236.98-236.98v-49.604h-231.523v-5.509H-268.5v55.113l231.471,231.467H84.217l99.196-99.201h49.604
		l41.803-41.804c-1.996-1.995-3.228-4.752-3.228-7.794c0-6.088,4.937-11.022,11.023-11.022c6.088,0,11.023,4.935,11.023,11.022
		C293.639,356.984,288.705,361.922,282.616,361.922z M84.217,381.21c1.521,0,2.755-1.233,2.755-2.757
		c0-1.521-1.234-2.751-2.755-2.751c-1.523,0-2.756,1.229-2.756,2.751C81.46,379.977,82.694,381.21,84.217,381.21z M84.217,389.477
		c-1.62,0-3.155-0.352-4.539-0.973l-94.664,94.664l-214.937-214.936V207.61h-275.61V202.1h281.122v66.133l209.425,209.423
		l91.408-91.406c-1.996-1.993-3.23-4.752-3.23-7.796c0-6.085,4.935-11.022,11.024-11.022c6.086,0,11.02,4.938,11.02,11.022
		C95.237,384.543,90.303,389.477,84.217,389.477z M56.66,353.656c1.521,0,2.755-1.234,2.755-2.756c0-1.523-1.233-2.758-2.755-2.758
		c-1.523,0-2.758,1.234-2.758,2.758C53.902,352.422,55.137,353.656,56.66,353.656z M56.66,361.922c-1.616,0-3.155-0.347-4.538-0.973
		l-83.641,83.639L-218.899,257.21v-60.62h-286.633v-5.516h292.146v66.136l181.868,181.868l80.386-80.384
		c-1.996-1.995-3.231-4.752-3.231-7.794c0-6.088,4.935-11.022,11.023-11.022c6.086,0,11.022,4.935,11.022,11.022
		C67.682,356.984,62.746,361.922,56.66,361.922z M23.592,326.101c1.521,0,2.756-1.237,2.756-2.758c0-1.521-1.234-2.753-2.756-2.753
		c-1.52,0-2.755,1.231-2.755,2.753C20.836,324.863,22.072,326.101,23.592,326.101z M23.592,334.367
		c-1.618,0-3.152-0.351-4.535-0.973l-67.108,67.104l-154.313-154.31v-60.624h-303.167v-5.509h308.679v66.133l148.802,148.799
		l63.85-63.849c-1.995-1.996-3.227-4.749-3.227-7.796c0-6.089,4.935-11.022,11.02-11.022c6.089,0,11.025,4.934,11.025,11.022
		S29.681,334.367,23.592,334.367z M-42.54,326.101c1.52,0,2.756-1.237,2.756-2.758c0-1.521-1.236-2.753-2.756-2.753
		c-1.521,0-2.756,1.231-2.756,2.753C-45.296,324.863-44.062,326.101-42.54,326.101z M-42.54,334.367
		c-6.089,0-11.024-4.936-11.024-11.024c0-3.045,1.235-5.797,3.229-7.796l-196.119-196.115h-259.078v-5.513h259.078l199.376,199.376
		c1.384-0.626,2.919-0.975,4.538-0.975c6.088,0,11.021,4.934,11.021,11.022S-36.452,334.367-42.54,334.367z M117.283,359.168
		c1.521,0,2.757-1.236,2.757-2.755c0-1.524-1.236-2.757-2.757-2.757c-1.521,0-2.757,1.232-2.757,2.757
		C114.525,357.932,115.761,359.168,117.283,359.168z M117.283,367.431c-6.087,0-11.025-4.933-11.025-11.018
		c0-3.047,1.236-5.804,3.23-7.799l-58.341-58.338h-93.69L-240.942,91.875h-264.59v-5.511h264.59l198.399,198.401h93.69
		l61.598,61.594c1.383-0.622,2.919-0.973,4.537-0.973c6.086,0,11.022,4.938,11.022,11.026
		C128.305,362.498,123.369,367.431,117.283,367.431z M194.436,254.454c1.523,0,2.757-1.233,2.757-2.754
		c0-1.524-1.234-2.755-2.757-2.755c-1.519,0-2.755,1.231-2.755,2.755C191.681,253.221,192.917,254.454,194.436,254.454z
		 M194.436,262.721c-5.245,0-9.635-3.664-10.749-8.571h-226.23L-257.475,39.212h-248.057v-5.508h248.057l214.932,214.932h226.388
		c1.325-4.597,5.568-7.959,10.591-7.959c6.088,0,11.024,4.934,11.024,11.023C205.46,257.788,200.524,262.721,194.436,262.721z
		 M150.35,331.61c1.521,0,2.755-1.232,2.755-2.754c0-1.524-1.234-2.756-2.755-2.756c-1.523,0-2.755,1.231-2.755,2.756
		C147.595,330.378,148.827,331.61,150.35,331.61z M150.35,339.878c-6.088,0-11.022-4.935-11.022-11.021
		c0-3.046,1.231-5.802,3.225-7.798l-52.825-52.826H-42.543L-257.475,53.298h-248.057v-5.511h248.057l214.932,214.933H89.728
		l56.081,56.083c1.388-0.623,2.921-0.973,4.542-0.973c6.084,0,11.022,4.934,11.022,11.025
		C161.373,334.943,156.435,339.878,150.35,339.878z M194.436,215.879c1.523,0,2.757-1.239,2.757-2.76
		c0-1.523-1.234-2.756-2.757-2.756c-1.519,0-2.755,1.233-2.755,2.756C191.681,214.641,192.917,215.879,194.436,215.879z
		 M194.436,224.14c-5.245,0-9.635-3.661-10.749-8.57H-53.564l-192.89-192.887h-259.078v-5.515h259.078l192.89,192.891h237.409
		c1.325-4.6,5.568-7.959,10.591-7.959c6.088,0,11.024,4.937,11.024,11.02C205.46,219.208,200.524,224.14,194.436,224.14z
		 M-42.54,188.319c1.52,0,2.756-1.231,2.756-2.754s-1.236-2.756-2.756-2.756c-1.521,0-2.756,1.233-2.756,2.756
		S-44.062,188.319-42.54,188.319z M-42.54,196.59c-6.089,0-11.024-4.937-11.024-11.025c0-3.039,1.235-5.799,3.229-7.793
		L-229.922-1.811h-275.61v-5.516h275.61L-47.078,175.52c1.384-0.631,2.919-0.977,4.538-0.977c6.088,0,11.021,4.932,11.021,11.022
		C-31.519,191.653-36.452,196.59-42.54,196.59z M-3.963,188.319c1.523,0,2.755-1.231,2.755-2.754s-1.232-2.756-2.755-2.756
		c-1.521,0-2.755,1.233-2.755,2.756S-5.484,188.319-3.963,188.319z M-3.963,196.59c-6.088,0-11.022-4.937-11.022-11.025
		c0-3.044,1.234-5.799,3.229-7.793L-213.387-23.86h-292.146v-5.511h292.146L-8.5,175.52c1.384-0.631,2.917-0.977,4.537-0.977
		c6.088,0,11.023,4.932,11.023,11.022C7.06,191.653,2.125,196.59-3.963,196.59z M34.617,188.319c1.52,0,2.756-1.231,2.756-2.754
		s-1.237-2.756-2.756-2.756c-1.523,0-2.755,1.233-2.755,2.756S33.094,188.319,34.617,188.319z M34.617,196.59
		c-6.089,0-11.025-4.937-11.025-11.025c0-3.044,1.234-5.799,3.23-7.793L-196.853-45.907h-308.679v-5.504h308.679L30.077,175.52
		c1.386-0.631,2.921-0.977,4.54-0.977c6.084,0,11.02,4.932,11.02,11.022C45.637,191.653,40.701,196.59,34.617,196.59z
		 M73.192,188.319c1.521,0,2.755-1.231,2.755-2.754s-1.234-2.756-2.755-2.756c-1.523,0-2.755,1.233-2.755,2.756
		S71.669,188.319,73.192,188.319z M73.192,196.59c-6.086,0-11.023-4.937-11.023-11.025c0-3.044,1.234-5.799,3.23-7.793
		l-245.718-245.72h-325.214v-5.511h325.214L68.657,175.52c1.381-0.631,2.917-0.977,4.536-0.977c6.089,0,11.024,4.932,11.024,11.022
		C84.217,191.653,79.281,196.59,73.192,196.59z M337.289,374.201c1.523,0,2.754-1.234,2.754-2.758c0-1.519-1.231-2.756-2.754-2.756
		c-1.524,0-2.757,1.237-2.757,2.756C334.532,372.967,335.765,374.201,337.289,374.201z M337.289,382.469
		c-6.089,0-11.023-4.938-11.023-11.025c0-5.245,3.661-9.635,8.571-10.745V250.202L-28.898-113.534h-476.634v-5.513h476.634
		L340.35,250.202v110.654c4.597,1.326,7.961,5.564,7.961,10.588C348.311,377.531,343.375,382.469,337.289,382.469z
		 M-327.454,145.037c1.522,0,2.756-1.23,2.756-2.755c0-1.521-1.234-2.753-2.756-2.753c-1.521,0-2.754,1.232-2.754,2.753
		C-330.208,143.807-328.975,145.037-327.454,145.037z M-338.045,139.218c1.327-4.596,5.566-7.959,10.591-7.959
		c6.088,0,11.024,4.936,11.024,11.023c0,6.088-4.936,11.021-11.024,11.021c-5.245,0-9.633-3.665-10.749-8.571h-99.528v-5.514
		H-338.045z M-145.844-246.277c-1.073-1.078-2.818-1.078-3.896,0c-1.076,1.074-1.076,2.818,0,3.897c1.078,1.076,2.822,1.076,3.896,0
		C-144.766-243.459-144.766-245.203-145.844-246.277z M-466.066-441.322v143.711l53.282,53.28h253.972
		c0-2.82,1.076-5.641,3.228-7.791c4.304-4.309,11.285-4.309,15.588,0c4.304,4.303,4.304,11.282,0,15.585
		c-4.303,4.309-11.284,4.309-15.588,0c-1.143-1.145-1.983-2.474-2.518-3.899H-416.68l-53.285-53.282v-147.605H-466.066z
		 M-118.564-218.998c-1.075-1.078-2.82-1.078-3.896,0c-1.076,1.074-1.076,2.821,0,3.894c1.076,1.078,2.82,1.078,3.896,0
		C-117.486-216.176-117.486-217.924-118.564-218.998z M-493.346-441.322v147.605l76.666,76.667h285.146
		c0-2.82,1.077-5.642,3.228-7.796c4.308-4.303,11.285-4.303,15.588,0c4.307,4.307,4.307,11.286,0,15.591
		c-4.303,4.303-11.281,4.303-15.588,0c-1.144-1.145-1.981-2.477-2.517-3.897h-289.756l-76.662-76.664v-151.505H-493.346z
		 M-91.284-191.722c-1.077-1.076-2.821-1.076-3.896,0c-1.076,1.078-1.076,2.823,0,3.901c1.075,1.074,2.819,1.074,3.896,0
		C-90.209-188.899-90.209-190.645-91.284-191.722z M-505.532-274.726l84.953,84.953h316.325c0-2.822,1.076-5.642,3.228-7.793
		c4.303-4.307,11.282-4.303,15.587,0c4.305,4.305,4.305,11.282,0,15.587c-4.305,4.304-11.284,4.304-15.587,0
		c-1.144-1.146-1.984-2.475-2.52-3.896h-320.928l-81.058-81.059V-274.726z M-64.005-164.44c-1.076-1.076-2.82-1.076-3.897,0
		c-1.074,1.074-1.074,2.82,0,3.894c1.078,1.077,2.821,1.077,3.897,0C-62.929-161.62-62.929-163.366-64.005-164.44z
		 M-505.532-243.549l81.058,81.057h347.498c0-2.821,1.076-5.643,3.228-7.796c4.305-4.305,11.286-4.303,15.588,0.003
		c4.304,4.301,4.304,11.28,0,15.585c-4.302,4.303-11.283,4.303-15.588,0c-1.143-1.145-1.984-2.477-2.52-3.897h-352.103l-77.16-77.16
		V-243.549z M382.565,115.55c0-1.521-1.234-2.753-2.757-2.753c-1.523,0-2.755,1.232-2.755,2.753c0,1.524,1.232,2.755,2.751,2.755
		C381.331,118.305,382.565,117.074,382.565,115.55z M192.438-441.322L192.43-71.826l179.583,179.583
		c1.994-1.994,4.751-3.23,7.791-3.23c6.088,0,11.026,4.937,11.026,11.023c-0.001,6.092-4.938,11.023-11.026,11.023
		c-6.086,0-11.018-4.932-11.018-11.023c0-1.614,0.348-3.154,0.971-4.54L186.919-71.826l0.009-369.496H192.438z M382.561,154.13
		c0-1.521-1.23-2.754-2.757-2.754c-1.519,0-2.751,1.233-2.751,2.754c0,1.521,1.232,2.753,2.751,2.753
		C381.331,156.883,382.561,155.651,382.561,154.13z M170.391-441.322l-0.007,386.03l201.628,201.624
		c1.994-1.992,4.751-3.228,7.791-3.228c6.088,0,11.025,4.936,11.025,11.025c0,6.085-4.937,11.021-11.025,11.021
		c-6.086,0-11.018-4.936-11.018-11.021c0-1.619,0.348-3.157,0.971-4.538L164.877-55.292l0.003-386.03H170.391z M382.561,192.707
		c0-1.521-1.23-2.754-2.757-2.754c-1.519,0-2.751,1.233-2.755,2.754c0,1.525,1.236,2.756,2.755,2.756
		C381.331,195.463,382.561,194.231,382.561,192.707z M148.346-441.322l-0.004,402.563l223.671,223.671
		c1.994-1.994,4.751-3.228,7.791-3.228c6.088,0,11.025,4.936,11.025,11.022c0,6.088-4.937,11.022-11.025,11.022
		c-6.086,0-11.022-4.934-11.022-11.022c0-1.617,0.352-3.154,0.976-4.538L142.827-38.759l0.008-402.563H148.346z M382.561,231.283
		c0-1.521-1.234-2.753-2.757-2.753c-1.519,0-2.755,1.232-2.755,2.753c0,1.521,1.236,2.76,2.755,2.76
		C381.327,234.043,382.561,232.805,382.561,231.283z M126.301-441.322l-0.002,419.1l245.71,245.709
		c1.998-1.994,4.755-3.226,7.795-3.226c6.088,0,11.025,4.937,11.025,11.022c0,6.088-4.937,11.02-11.025,11.022
		c-6.086,0-11.022-4.934-11.022-11.022c0-1.617,0.352-3.152,0.976-4.533L120.786-22.222l0.005-419.1H126.301z M416.757,302.796
		c0,1.524,1.234,2.753,2.755,2.753c1.523,0,2.753-1.233,2.753-2.753c0-1.521-1.23-2.754-2.753-2.754
		C417.991,300.042,416.757,301.275,416.757,302.796z M240.716-441.322v80.996v19.017L240.712-66.45L422.58,115.418l-0.004,176.784
		c4.595,1.331,7.96,5.572,7.96,10.595c0,6.089-4.936,11.023-11.024,11.023c-6.086,0-11.023-4.934-11.023-11.023
		c0-5.247,3.664-9.635,8.574-10.748v-176.63L235.201-66.45l0.005-274.859v-19.017v-80.996H240.716z M323.071-47.396
		c0,1.523,1.236,2.758,2.754,2.758c1.523,0,2.76-1.235,2.76-2.758c0-1.521-1.237-2.753-2.755-2.753
		C324.307-50.149,323.071-48.917,323.071-47.396z M259.7-441.322l-0.002,61.473v19.017v247.304l58.336,58.339
		c1.996-1.996,4.75-3.229,7.797-3.229c6.088,0,11.019,4.936,11.019,11.022c0,6.085-4.93,11.024-11.019,11.024
		s-11.022-4.934-11.022-11.024c0-1.615,0.345-3.148,0.971-4.535l-61.594-61.597v-247.304v-19.017l0.004-61.473H259.7z
		 M460.845,302.796c0,1.521,1.233,2.753,2.759,2.753c1.52,0,2.753-1.233,2.753-2.753c0-1.521-1.233-2.756-2.753-2.754
		C462.079,300.042,460.845,301.275,460.845,302.796z M295.831-441.322l-0.004,86.506v7.993l-0.004,214.24l77.158,77.157v60.62
		l93.688,93.688l-0.004,193.318c4.6,1.331,7.963,5.568,7.963,10.595c0,6.089-4.939,11.023-11.023,11.023
		c-6.09,0-11.022-4.934-11.022-11.023c0-5.247,3.664-9.635,8.569-10.752l0.004-193.161L367.467,5.195v-60.62l-77.151-77.157v-214.24
		v-7.993l0.004-86.506H295.831z M385.534-94.344c0,1.523,1.232,2.754,2.75,2.754c1.528,0,2.76-1.231,2.76-2.754
		s-1.232-2.754-2.76-2.754C386.766-97.099,385.534-95.867,385.534-94.344z M322.161-441.322v11.872l-0.004,268.971l58.337,58.338
		c1.993-1.992,4.753-3.228,7.794-3.228c6.084,0,11.023,4.934,11.023,11.024c0,6.086-4.939,11.025-11.027,11.025
		c-6.082,0-11.018-4.939-11.018-11.025c0-1.619,0.349-3.156,0.97-4.538l-61.593-61.597l0.004-268.971v-11.872H322.161z
		 M427.784-41.887c0,1.521,1.234,2.755,2.757,2.755c1.519,0,2.755-1.233,2.755-2.755c0-1.523-1.237-2.751-2.755-2.751
		C429.018-44.638,427.784-43.41,427.784-41.887z M345.431-441.322v66.984v7.995l-0.004,181.171l88.175,88.175v44.518
		c4.595,1.329,7.961,5.567,7.961,10.592c0,6.092-4.936,11.025-11.022,11.025c-6.088,0-11.024-4.934-11.024-11.025
		c0-5.244,3.667-9.633,8.574-10.744v-44.365l-88.176-88.175v-181.171v-7.995l0.004-66.984H345.431z M455.337-14.329
		c0,1.52,1.238,2.756,2.757,2.756c1.523,0,2.756-1.237,2.756-2.756c0-1.521-1.233-2.754-2.756-2.754
		C456.575-17.083,455.337-15.85,455.337-14.329z M372.984-441.322v66.984v7.995l-0.004,164.635l88.18,88.175v88.608
		c4.596,1.331,7.957,5.569,7.957,10.592c0,6.088-4.932,11.025-11.023,11.025c-6.088,0-11.024-4.937-11.024-11.022
		c0-5.247,3.668-9.638,8.574-10.751v-88.453l-88.176-88.175l0.008-164.635v-7.995v-66.984H372.984z M510.451-36.372
		c0,1.52,1.234,2.753,2.753,2.753c1.523,0,2.756-1.233,2.756-2.753c0-1.526-1.232-2.76-2.756-2.76
		C511.686-39.132,510.451-37.898,510.451-36.372z M406.053-441.322l-0.004,66.984v7.992v148.104L516.271-108.02v61.052
		c4.598,1.328,7.961,5.569,7.961,10.592c0,6.089-4.94,11.025-11.027,11.025c-6.084,0-11.02-4.937-11.02-11.021
		c0-5.247,3.664-9.638,8.574-10.751v-60.896L400.537-218.242l0.004-148.104v-7.992v-66.984H406.053z M482.898-207.219
		c0,1.518,1.234,2.753,2.753,2.753c1.523,0,2.76-1.235,2.76-2.753c0-1.521-1.236-2.758-2.76-2.758
		C484.133-209.977,482.898-208.74,482.898-207.219z M444.629-441.322v66.983v7.993v81.972h44.087v66.56
		c4.596,1.326,7.961,5.569,7.961,10.595c-0.004,6.085-4.936,11.022-11.027,11.022c-6.084,0-11.021-4.935-11.021-11.022
		c0-5.245,3.664-9.636,8.574-10.75v-60.898h-44.088v-87.479v-7.992v-66.984H444.629z M510.451-174.156
		c0,1.524,1.234,2.76,2.757,2.76c1.524,0,2.755-1.235,2.755-2.76c0-1.52-1.231-2.753-2.755-2.753
		C511.686-176.909,510.451-175.676,510.451-174.156z M472.187-441.322v66.983v7.993l-0.004,32.368l44.088,44.091v105.141
		c4.598,1.326,7.961,5.566,7.961,10.589c0,6.09-4.937,11.025-11.023,11.025c-6.088,0-11.024-4.936-11.02-11.025
		c0-5.246,3.663-9.631,8.569-10.745v-104.985l-44.083-44.091v-32.368v-7.993v-66.983H472.187z M545.968-141.089
		c0,1.524,1.231,2.76,2.756,2.756c1.522,0,2.754-1.232,2.754-2.756c0-1.521-1.231-2.755-2.754-2.755
		C547.199-143.844,545.968-142.61,545.968-141.089z M507.701-441.322v66.978v7.999v40.94l44.083,44.089v129.639
		c4.603,1.326,7.962,5.565,7.962,10.588c0,6.092-4.938,11.023-11.022,11.023c-6.084,0-11.021-4.932-11.021-11.023
		c0-5.244,3.663-9.631,8.573-10.75v-129.478l-44.088-44.089v-40.94v-7.999l0.004-66.978H507.701z M504.937,302.796
		c0,1.521,1.228,2.753,2.751,2.753c1.523,0,2.757-1.233,2.757-2.753c0-1.521-1.234-2.756-2.757-2.756
		C506.165,300.04,504.937,301.275,504.937,302.796z M521.785-441.322v86.503v7.995v21.347l66.135,66.133l-0.004,297.603
		l-77.162,77.155v176.787c4.597,1.331,7.959,5.566,7.959,10.595c0,6.084-4.937,11.017-11.025,11.017
		c-6.082,0-11.022-4.933-11.022-11.017c0-5.247,3.665-9.635,8.578-10.752v-176.63l77.16-77.155v-297.603l-66.133-66.133v-21.347
		v-7.995l0.009-86.503H521.785z M549.024,226.521c0,1.52,1.237,2.753,2.756,2.753s2.756-1.233,2.756-2.753
		c0-1.521-1.237-2.76-2.756-2.76S549.024,225,549.024,226.521z M565.265-441.322l-0.004,87.385v7.992v21.348l49.6,49.602
		l-0.004,336.177l-60.623,60.625l-0.003,93.964c4.906,1.112,8.572,5.502,8.572,10.75c0,6.085-4.935,11.022-11.022,11.022
		c-6.087,0-11.023-4.937-11.023-11.022c0-5.028,3.364-9.264,7.962-10.595l0.005-94.118l60.622-60.625l0.002-336.177l-49.593-49.602
		v-21.348v-7.992v-87.385H565.265z M598.623,592.648c0,1.523,1.234,2.757,2.758,2.757c1.522,0,2.755-1.235,2.755-2.757
		c0-1.524-1.232-2.756-2.755-2.756C599.857,589.893,598.623,591.124,598.623,592.648z M637.518-120.573l-0.002,564.419
		l-33.069,33.069l-0.005,105.138c4.603,1.328,7.962,5.571,7.962,10.596c0,6.085-4.937,11.022-11.022,11.022
		c-6.089,0-11.023-4.936-11.023-11.022c0-5.247,3.666-9.636,8.572-10.749l0.005-104.984l33.064-33.069l0.009-564.419v-52.829
		l0.004-267.919h5.515l-0.005,267.919L637.518-120.573z M648.224,707.064c0,1.521,1.235,2.755,2.755,2.755
		c1.523,0,2.757-1.233,2.757-2.755c0-1.524-1.233-2.756-2.757-2.756C649.459,704.309,648.224,705.54,648.224,707.064z
		 M654.053-2.565l-0.008,699.038c4.597,1.324,7.959,5.565,7.959,10.592c0,6.087-4.937,11.022-11.025,11.022
		c-6.086,0-11.018-4.936-11.018-11.022c0-5.247,3.663-9.638,8.569-10.749l0.013-698.88v-9.218l0.002-429.539h5.517l-0.009,429.539
		V-2.565z M692.315,707.064c0,1.521,1.232,2.755,2.751,2.755c1.523,0,2.758-1.233,2.758-2.755c0-1.524-1.234-2.756-2.758-2.756
		C693.548,704.309,692.315,705.54,692.315,707.064z M676.102-441.322l-0.001,430.149v7.993l-0.009,467.752l44.083,44.088v93.689
		l-22.043,22.046l-0.001,72.077c4.6,1.324,7.963,5.565,7.963,10.589c0,6.09-4.935,11.025-11.027,11.025
		c-6.086,0-11.019-4.936-11.019-11.022c0-5.247,3.662-9.638,8.57-10.753v-71.916l22.049-22.046v-93.688l-44.088-44.09L670.583-3.18
		v-7.993l0.009-430.149H676.102z M736.399,707.062c0,1.524,1.236,2.753,2.755,2.753c1.522,0,2.76-1.229,2.76-2.753
		c0-1.521-1.237-2.753-2.76-2.753C737.636,704.309,736.399,705.54,736.399,707.062z M692.638-441.322l-0.007,430.149v7.993
		l-0.005,456.729l49.598,49.602l-0.004,193.322c4.598,1.324,7.957,5.562,7.957,10.589c0,6.09-4.93,11.02-11.022,11.025
		c-6.084,0-11.019-4.936-11.019-11.025c0-5.244,3.666-9.635,8.574-10.752l0.004-193.159l-49.604-49.602L687.118-3.18v-7.993
		l0.009-430.149H692.638z M780.491,707.062c0,1.524,1.236,2.753,2.756,2.753c1.522,0,2.755-1.229,2.755-2.753
		c0-1.521-1.232-2.753-2.755-2.753C781.728,704.309,780.491,705.54,780.491,707.062z M709.172-441.322l-0.016,889.36l49.599,49.597
		v165.337l27.554,27.557v5.944c4.597,1.322,7.96,5.562,7.96,10.589c0,6.09-4.934,11.02-11.021,11.02
		c-6.089,0-11.022-4.93-11.022-11.02c0-5.247,3.665-9.635,8.569-10.752v-5.781l-27.549-27.557V497.635l-49.601-49.597l0.013-889.36
		H709.172z M875.753,501.117c0,1.52,1.237,2.755,2.757,2.755c1.523,0,2.755-1.235,2.755-2.755c0-1.524-1.231-2.756-2.755-2.756
		C876.99,498.361,875.753,499.593,875.753,501.117z M773.812-441.322v224.205v7.997l-0.009,440.188l55.106,55.115v159.824
		l45.062,45.062c1.386-0.627,2.921-0.977,4.537-0.977c6.086,0,11.022,4.938,11.022,11.023c0,6.089-4.937,11.022-11.022,11.022
		c-6.089,0-11.021-4.934-11.021-11.021c0-3.046,1.229-5.802,3.228-7.794l-47.322-47.317l0.007-159.824l-55.11-55.115L768.3-209.12
		v-7.997l0.004-224.205H773.812z M808.049,635.417c0,1.523,1.231,2.757,2.756,2.757c1.519,0,2.753-1.233,2.753-2.757
		c0-1.521-1.234-2.756-2.753-2.756C809.28,632.661,808.049,633.896,808.049,635.417z M736.725-441.322l-0.008,430.149v7.993
		l-0.003,434.683l77.156,77.157l-0.005,116.167c4.598,1.325,7.961,5.562,7.961,10.59c0,6.085-4.934,11.021-11.021,11.022
		c-6.09,0-11.023-4.938-11.023-11.022c0-5.249,3.665-9.638,8.574-10.751V508.66l-77.149-77.157L731.211-3.18v-7.993l0.006-430.149
		H736.725z M852.137,635.417c0,1.523,1.236,2.753,2.755,2.753c1.523,0,2.756-1.229,2.756-2.753c0-1.522-1.232-2.756-2.756-2.756
		C853.373,632.661,852.137,633.895,852.137,635.417z M758.772-441.322l-0.009,430.149v7.993l-0.009,434.683l99.198,99.199v94.119
		c4.598,1.326,7.962,5.568,7.962,10.596c0,6.085-4.935,11.021-11.023,11.021c-6.084,0-11.022-4.936-11.022-11.021
		c0-5.249,3.666-9.638,8.578-10.751v-93.964l-99.202-99.199L753.251-3.18v-7.993l0.005-430.149H758.772z M794.487-234.78
		c0,1.521,1.233,2.753,2.755,2.753c1.519,0,2.757-1.231,2.757-2.753c0-1.524-1.238-2.758-2.757-2.758
		C795.721-237.538,794.487-236.302,794.487-234.78z M783.775-441.322l-0.004,66.976v7.993v48.904l16.534,22.046l-0.004,50.032
		c4.595,1.324,7.96,5.564,7.96,10.59c0,6.086-4.932,11.023-11.02,11.023c-6.086,0-11.023-4.937-11.023-11.023
		c0-5.246,3.668-9.636,8.574-10.751v-49.871l-16.534-22.046v-48.904v-7.993l0.004-66.976H783.775z M794.487-196.202
		c0,1.521,1.233,2.755,2.755,2.755c1.519,0,2.757-1.233,2.757-2.755c0-1.522-1.238-2.758-2.757-2.758
		C795.721-198.96,794.487-197.725,794.487-196.202z M808.267-441.322v66.976v7.993v26.862l27.558,27.552v82.669l-28.528,28.533
		c0.619,1.384,0.966,2.921,0.966,4.534c0,6.085-4.932,11.021-11.02,11.021c-6.086,0-11.023-4.936-11.023-11.021
		c0-6.086,4.938-11.021,11.023-11.023c3.042,0,5.799,1.233,7.793,3.228l25.272-25.271v-82.669l-27.553-27.552v-26.862v-7.993
		l0.004-66.976H808.267z M794.487-157.627c0,1.526,1.233,2.76,2.753,2.76c1.521,0,2.759-1.233,2.759-2.76
		c0-1.523-1.238-2.753-2.759-2.753C795.721-160.38,794.487-159.15,794.487-157.627z M824.799-441.322v66.976v7.993v4.813
		l27.556,27.557v126.757l-45.067,45.064c0.628,1.382,0.975,2.92,0.975,4.534c0,6.092-4.932,11.023-11.021,11.023
		c-6.084,0-11.021-4.932-11.021-11.023c0-6.086,4.938-11.02,11.023-11.02c3.042,0,5.799,1.231,7.793,3.229l41.812-41.808v-126.757
		l-27.558-27.557v-4.813v-7.993l0.004-66.976H824.799z M794.487-119.047c0,1.521,1.233,2.756,2.753,2.756
		c1.521,0,2.759-1.235,2.759-2.756c0-1.523-1.238-2.756-2.759-2.756C795.721-121.803,794.487-120.57,794.487-119.047z
		 M841.335-441.322v66.976v1.787l38.579,38.577l-0.002,137.78l-72.625,72.621c0.624,1.382,0.975,2.917,0.975,4.534
		c0,6.086-4.932,11.023-11.021,11.023c-6.088,0-11.021-4.937-11.021-11.023s4.938-11.023,11.021-11.023
		c3.044,0,5.801,1.235,7.795,3.228l69.364-69.359v-137.78l-38.575-38.577v-1.787v-66.976H841.335z M794.487-80.467
		c0,1.52,1.229,2.753,2.753,2.753c1.521,0,2.755-1.233,2.755-2.753c0-1.524-1.234-2.758-2.755-2.758
		C795.717-83.225,794.487-81.991,794.487-80.467z M857.869-441.322v52.226l44.083,44.091v165.335l-94.665,94.661
		c0.624,1.384,0.975,2.92,0.975,4.541c0,6.085-4.932,11.019-11.021,11.019c-6.088,0.002-11.021-4.934-11.021-11.019
		c0-6.09,4.934-11.025,11.021-11.025c3.044,0,5.801,1.235,7.795,3.229l91.41-91.406v-165.335l-44.091-44.091v-52.226H857.869z
		 M920.61-331.229c1.523,0,2.756-1.235,2.756-2.753c0-1.521-1.232-2.756-2.756-2.756c-1.522,0-2.755,1.235-2.755,2.756
		C917.855-332.459,919.088-331.229,920.61-331.229z M923.672-441.322v66.976v7.993v21.776c4.602,1.329,7.961,5.564,7.961,10.594
		c0,6.085-4.934,11.023-11.022,11.023c-6.088,0-11.022-4.938-11.022-11.023c0-5.246,3.666-9.638,8.574-10.751v-21.619v-7.993
		l0.004-66.976H923.672z M959.187-331.229c1.522,0,2.757-1.235,2.757-2.753c0-1.523-1.234-2.756-2.757-2.756
		c-1.519,0-2.756,1.233-2.756,2.756C956.431-332.465,957.668-331.229,959.187-331.229z M962.252-441.322v66.976v7.993l-0.002,21.776
		c4.596,1.329,7.961,5.564,7.961,10.59c0,6.088-4.937,11.022-11.024,11.022c-6.087,0-11.022-4.934-11.022-11.019
		c0-5.246,3.665-9.638,8.573-10.751v-21.619v-7.993v-66.976H962.252z M997.769-331.229c1.519,0,2.755-1.235,2.755-2.756
		c0-1.52-1.236-2.753-2.755-2.753s-2.762,1.233-2.762,2.753C995.007-332.465,996.25-331.229,997.769-331.229z M1000.829-441.322
		v66.976v7.993v21.776c4.599,1.329,7.958,5.564,7.958,10.59c0,6.088-4.933,11.022-11.019,11.022
		c-6.089,0-11.024-4.934-11.024-11.022c0-5.242,3.667-9.634,8.573-10.75v-21.617v-7.993v-66.976H1000.829z M1036.345-331.229
		c1.523,0,2.755-1.235,2.755-2.756c0-1.52-1.231-2.753-2.755-2.753c-1.52,0-2.756,1.233-2.756,2.753
		C1033.589-332.465,1034.825-331.229,1036.345-331.229z M1039.409-441.322l-0.003,66.976v7.993v21.776
		c4.602,1.324,7.961,5.564,7.961,10.59c0,6.088-4.934,11.022-11.022,11.022c-6.088,0-11.019-4.934-11.019-11.022
		c0-5.244,3.666-9.634,8.569-10.75v-21.617v-7.993v-66.976H1039.409z M896.229,272.243c0,1.521,1.231,2.755,2.75,2.755
		c1.528,0,2.76-1.233,2.76-2.755c0-1.524-1.231-2.753-2.76-2.753C897.461,269.489,896.229,270.718,896.229,272.243z
		 M1094.947-441.322v66.971v7.997l-0.009,65.433l-38.571,0.003L797.335-41.89V79.354l104.711,104.711v77.583
		c4.597,1.329,7.961,5.571,7.961,10.594c0,6.087-4.938,11.021-11.027,11.021c-6.084,0-11.018-4.933-11.018-11.021
		c0-5.245,3.661-9.635,8.571-10.749v-77.428L791.824,79.354V-41.89l264.543-264.54h33.065v-59.925v-7.997v-66.971H1094.947z
		 M973.38,272.239c0,1.525,1.238,2.759,2.757,2.759c1.521,0,2.76-1.233,2.76-2.759c0-1.521-1.238-2.753-2.76-2.753
		C974.618,269.486,973.38,270.718,973.38,272.239z M1113.932-441.322v66.971v7.997l-0.007,87.479l-55.108,0.004L827.343-47.403
		l-0.004,121.245l99.202,99.199v49.604l41.804,41.801c1.998-1.992,4.747-3.227,7.792-3.227c6.087,0,11.023,4.936,11.023,11.021
		c0,6.089-4.937,11.024-11.023,11.024c-6.088,0-11.02-4.936-11.02-11.024c0-1.617,0.348-3.148,0.976-4.534l-45.063-45.061v-49.604
		l-99.203-99.199l0.004-121.245l236.986-236.981l49.596-0.002l0.005-81.969v-7.997v-66.971H1113.932z M945.831,73.838
		c0,1.524,1.229,2.758,2.756,2.758c1.519,0,2.757-1.233,2.757-2.758c0-1.521-1.238-2.755-2.757-2.755
		C947.06,71.083,945.831,72.317,945.831,73.838z M1119.165-234.785h-60.354L849.384-25.36l91.407,91.408
		c1.994-1.996,4.749-3.228,7.796-3.228c6.088-0.002,11.022,4.934,11.022,11.019c0,6.09-4.935,11.025-11.022,11.025
		c-6.091,0-11.022-4.934-11.022-11.025c0-1.614,0.348-3.149,0.975-4.535L843.873-25.36l214.938-214.938h60.354V-234.785z
		 M973.389,46.287c0,1.521,1.232,2.753,2.751,2.753c1.523,0,2.762-1.232,2.762-2.753c0-1.525-1.238-2.758-2.762-2.758
		C974.621,43.529,973.389,44.762,973.389,46.287z M1119.165-223.764h-49.328L887.964-41.89l80.385,80.379
		c1.994-1.993,4.747-3.226,7.791-3.226c6.089,0,11.027,4.934,11.027,11.024c0,6.084-4.938,11.019-11.027,11.02
		c-6.082,0-11.022-4.936-11.022-11.02c0-1.621,0.356-3.156,0.976-4.54L882.458-41.89l187.379-187.384h49.328V-223.764z
		 M1000.941,13.218c0,1.523,1.234,2.756,2.756,2.756c1.522,0,2.757-1.233,2.757-2.756s-1.234-2.753-2.757-2.753
		C1002.176,10.465,1000.941,11.695,1000.941,13.218z M1119.165-207.23h-38.306L932.057-58.426l63.85,63.85
		c1.994-1.994,4.751-3.229,7.791-3.229c6.088,0,11.025,4.934,11.025,11.023c-0.006,6.088-4.938,11.022-11.025,11.022
		c-6.082,0.003-11.019-4.934-11.019-11.022c0-1.617,0.344-3.157,0.972-4.542l-67.104-67.103l154.313-154.312h38.306V-207.23z
		 M1000.941-52.916c0,1.525,1.237,2.753,2.76,2.753c1.519,0,2.753-1.228,2.753-2.753c0-1.521-1.234-2.754-2.753-2.754
		C1002.179-55.67,1000.941-54.437,1000.941-52.916z M1119.165-162.871L1013.751-57.457c0.624,1.384,0.972,2.921,0.972,4.542
		c0,6.09-4.938,11.022-11.021,11.022c-6.086,0-11.022-4.932-11.022-11.022c0-6.088,4.937-11.025,11.022-11.025
		c3.042,0,5.797,1.235,7.793,3.227l107.671-107.67V-162.871z M967.872,106.906c0,1.524,1.238,2.76,2.758,2.76
		c1.519,0,2.759-1.235,2.759-2.76c0-1.52-1.24-2.751-2.759-2.751C969.11,104.154,967.872,105.386,967.872,106.906z
		 M1119.165-129.805l-76.886,76.889v93.69l-61.603,61.597c0.628,1.384,0.975,2.919,0.975,4.535c0,6.09-4.937,11.025-11.021,11.025
		c-6.084,0-11.021-4.936-11.021-11.025c0-6.086,4.937-11.019,11.021-11.019c3.046,0,5.806,1.232,7.79,3.226l58.343-58.338
		l0.009-93.69l82.394-82.399V-129.805z M995.428,139.972c0,1.524,1.232,2.758,2.76,2.758c1.519,0,2.75-1.233,2.75-2.758
		c0-1.52-1.231-2.751-2.75-2.751C996.66,137.22,995.428,138.454,995.428,139.972z M1119.165-107.761l-54.844,54.846V79.349
		l-56.092,56.088c0.631,1.384,0.976,2.92,0.976,4.535c0,6.091-4.933,11.025-11.018,11.025c-6.089,0-11.027-4.934-11.027-11.025
		c0.007-6.085,4.938-11.019,11.027-11.019c3.041,0,5.797,1.235,7.79,3.227l52.833-52.831V-52.916l60.354-60.355V-107.761z
		 M973.38,316.33c0,1.525,1.238,2.753,2.757,2.753c1.521,0,2.76-1.228,2.76-2.753c0-1.52-1.238-2.755-2.76-2.755
		C974.618,313.575,973.38,314.811,973.38,316.33z M1119.165,297.608l-21.783,21.784l-110.653,0.003
		c-1.324,4.597-5.568,7.959-10.592,7.959c-6.092,0-11.02-4.938-11.02-11.024c0-6.088,4.932-11.021,11.02-11.021
		c5.25,0,9.637,3.665,10.749,8.571h110.496l21.783-21.785V297.608z M-3.685-159.321c1.074,1.072,2.82,1.072,3.896,0
		c1.08-1.076,1.08-2.821,0-3.899c-1.076-1.078-2.821-1.078-3.896,0C-4.761-162.143-4.761-160.397-3.685-159.321z M-9.531-153.478
		c-4.302-4.305-4.302-11.287,0-15.585c2.153-2.158,4.974-3.23,7.796-3.23v-253.974l-15.056-15.054h7.793L2.16-430.163v258.576
		c1.423,0.536,2.753,1.377,3.896,2.523c4.308,4.298,4.308,11.281,0,15.585C1.755-149.173-5.225-149.173-9.531-153.478z
		 M23.595-132.046c1.076,1.08,2.819,1.08,3.896,0c1.074-1.076,1.074-2.819,0-3.897c-1.077-1.072-2.821-1.072-3.896,0
		C22.518-134.865,22.518-133.122,23.595-132.046z M17.748-126.199c-4.303-4.307-4.303-11.283,0-15.587
		c2.154-2.151,4.977-3.228,7.794-3.228v-285.149l-11.158-11.159h7.793l7.262,7.261v289.756c1.424,0.536,2.752,1.375,3.896,2.518
		c4.308,4.305,4.308,11.28,0,15.587C29.034-121.897,22.055-121.897,17.748-126.199z M50.874-104.765c1.077,1.074,2.82,1.074,3.896,0
		c1.075-1.076,1.075-2.822,0-3.899c-1.077-1.077-2.82-1.077-3.896,0C49.796-107.586,49.796-105.841,50.874-104.765z M45.028-98.922
		c-4.308-4.303-4.308-11.284,0-15.585c2.152-2.153,4.974-3.231,7.792-3.231v-316.322l-7.26-7.261h7.793l3.367,3.364v320.929
		c1.417,0.536,2.751,1.377,3.896,2.521c4.307,4.302,4.307,11.283,0,15.585C56.311-94.617,49.331-94.617,45.028-98.922z
		 M78.152-77.488c1.074,1.076,2.82,1.076,3.896,0c1.077-1.078,1.077-2.823,0-3.897c-1.077-1.076-2.822-1.076-3.896,0
		C77.076-80.311,77.076-78.565,78.152-77.488z M72.308-71.641c-4.309-4.303-4.309-11.284,0-15.589
		c2.151-2.152,4.971-3.231,7.791-3.231v-347.497l-3.364-3.364h7.264v351.574c1.418,0.536,2.751,1.377,3.896,2.518
		c4.303,4.305,4.303,11.286,0,15.589C83.587-67.338,76.61-67.338,72.308-71.641z M443.11,672.981c0,1.522,1.236,2.755,2.755,2.755
		c1.523,0,2.755-1.232,2.755-2.755c0-1.523-1.232-2.757-2.755-2.757C444.347,670.225,443.11,671.458,443.11,672.981z
		 M434.843,672.981c0-6.09,4.938-11.022,11.022-11.022c6.089,0,11.022,4.933,11.022,11.022s-4.934,11.021-11.022,11.021
		c-3.042,0-5.797-1.233-7.794-3.228l-91.404,91.406l209.42,209.425l66.135-0.005l-0.004,270.424h-5.515l0.002-264.911l-60.618,0.003
		L341.153,772.182l94.665-94.662C435.193,676.134,434.843,674.601,434.843,672.981z M470.668,700.536
		c0,1.521,1.231,2.756,2.754,2.756c1.52,0,2.755-1.234,2.755-2.756c0-1.522-1.236-2.755-2.755-2.755
		C471.899,697.781,470.668,699.014,470.668,700.536z M462.4,700.536c0-6.087,4.937-11.021,11.022-11.021
		c6.089,0,11.023,4.933,11.023,11.021s-4.934,11.023-11.023,11.023c-3.046,0-5.801-1.231-7.794-3.228l-80.385,80.385L567.106,970.58
		h66.138l-0.008,281.445h-5.507V976.094h-60.623L379.733,788.717l83.643-83.643C462.748,703.691,462.4,702.155,462.4,700.536z
		 M498.221,733.602c0,1.523,1.236,2.755,2.755,2.755c1.524,0,2.76-1.231,2.76-2.755c0-1.521-1.236-2.756-2.76-2.756
		C499.457,730.846,498.225,732.081,498.221,733.602z M489.958,733.602c0-6.088,4.932-11.019,11.018-11.019
		c6.089,0,11.022,4.931,11.022,11.019c0,6.089-4.934,11.025-11.022,11.025c-3.042,0-5.797-1.235-7.79-3.23l-63.855,63.854
		l148.798,148.798h66.138l-0.006,297.977h-5.513l0.004-292.466h-60.623L423.82,805.251l67.108-67.107
		C490.305,736.756,489.958,735.221,489.958,733.602z M410.444,476.299c0,1.522,1.236,2.754,2.755,2.754
		c1.523,0,2.759-1.231,2.759-2.754c0-1.523-1.236-2.757-2.759-2.757C411.68,473.542,410.444,474.775,410.444,476.299z
		 M402.181,476.3c0-6.09,4.934-11.025,11.022-11.025s11.018,4.936,11.018,11.024c0,1.617-0.345,3.153-0.973,4.537l61.596,61.596
		v93.689l198.397,198.399l-0.002,298.099v7.995v111.411h-5.513v-111.411v-7.995l0.005-298.099L479.334,636.121v-93.689
		l-58.338-58.337c-1.992,1.994-4.751,3.228-7.797,3.228C407.115,487.322,402.181,482.389,402.181,476.3z M515.159,399.14
		c0,1.521,1.232,2.755,2.756,2.755c1.522,0,2.754-1.233,2.754-2.755c0-1.52-1.231-2.756-2.754-2.756
		C516.392,396.384,515.159,397.62,515.159,399.14z M506.892,399.14c0-6.086,4.935-11.021,11.023-11.021
		c6.085,0,11.018,4.936,11.018,11.021c0,5.026-3.359,9.265-7.957,10.594v226.388l214.927,214.931l-0.004,281.567v7.995v98.505
		l-12.908,12.906h-5.506l12.904-12.906v-98.505v-7.995l0.008-281.567L515.462,636.121l0.001-226.229
		C510.558,408.777,506.892,404.387,506.892,399.14z M438.001,443.229c0,1.524,1.237,2.76,2.755,2.76c1.523,0,2.757-1.235,2.757-2.76
		c0-1.518-1.234-2.753-2.757-2.753C439.238,440.477,438.001,441.712,438.001,443.229z M429.734,443.232
		c0-6.086,4.94-11.023,11.023-11.023c6.088,0,11.022,4.932,11.022,11.021c0,1.62-0.35,3.157-0.971,4.541l56.083,56.086
		l-0.004,132.265l214.931,214.931v281.567l-0.004,7.995v98.505l-12.903,12.906h-5.518l12.913-12.906v-98.505v-7.995V851.052
		L501.38,636.121V503.856l-52.826-52.831c-1.996,1.994-4.751,3.229-7.797,3.229C434.67,454.255,429.734,449.317,429.734,443.232z
		 M553.739,399.14c0,1.521,1.231,2.755,2.751,2.755c1.522,0,2.755-1.233,2.755-2.755c0-1.521-1.232-2.756-2.755-2.756
		C554.971,396.384,553.739,397.619,553.739,399.14z M545.472,399.14c0-6.086,4.934-11.021,11.019-11.021
		c6.089,0,11.022,4.936,11.022,11.021c0,5.026-3.359,9.265-7.957,10.594l-0.007,237.41l192.89,192.885l-0.005,292.591v7.995
		l-0.004,109.523l-1.882,1.888h-5.51l1.885-1.888v-109.523v-7.995l0.003-292.591L554.042,647.144V409.892
		C549.133,408.777,545.468,404.387,545.472,399.14z M917.932,769.145c1.522,0,2.757-1.231,2.757-2.753
		c0-1.522-1.234-2.758-2.757-2.758c-1.524,0-2.756,1.235-2.756,2.758C915.176,767.913,916.407,769.145,917.932,769.145z
		 M1119.165,579.011h-13.855L925.729,758.596c1.988,1.995,3.226,4.752,3.226,7.793c0,6.088-4.938,11.023-11.022,11.023
		c-6.087,0-11.027-4.936-11.027-11.023c0-6.089,4.94-11.024,11.027-11.024c1.615,0,3.153,0.352,4.537,0.979L1105.31,573.5h13.855
		V579.011z M879.355,769.145c1.519,0,2.751-1.231,2.751-2.756c0-1.52-1.232-2.755-2.751-2.755c-1.527,0-2.76,1.235-2.76,2.755
		C876.596,767.913,877.828,769.145,879.355,769.145z M1119.165,556.964h-30.39L887.146,758.596c1.999,1.995,3.228,4.752,3.228,7.793
		c0,6.088-4.935,11.023-11.019,11.023c-6.093,0-11.027-4.936-11.027-11.023c0-6.089,4.935-11.024,11.027-11.024
		c1.616,0,3.15,0.352,4.533,0.979l204.887-204.887h30.39V556.964z M840.775,769.145c1.522,0,2.756-1.231,2.756-2.756
		c0-1.52-1.233-2.755-2.756-2.755c-1.523,0-2.757,1.235-2.757,2.755C838.019,767.913,839.252,769.145,840.775,769.145z
		 M1119.165,534.923h-46.921L848.566,758.596c1.997,1.995,3.228,4.752,3.228,7.793c0,6.088-4.932,11.023-11.019,11.023
		c-6.088,0-11.021-4.936-11.021-11.023c0-6.089,4.933-11.024,11.021-11.024c1.613,0,3.154,0.352,4.531,0.979l226.938-226.933h46.921
		V534.923z M802.193,769.145c1.527,0,2.762-1.231,2.762-2.756c0-1.52-1.234-2.755-2.762-2.755c-1.519,0-2.751,1.235-2.751,2.755
		C799.442,767.913,800.675,769.145,802.193,769.145z M1119.165,512.876h-63.454l-245.716,245.72
		c1.988,1.995,3.228,4.752,3.228,7.793c0,6.088-4.937,11.023-11.029,11.023c-6.086,0-11.019-4.936-11.019-11.023
		c0-6.089,4.933-11.024,11.019-11.024c1.621,0,3.159,0.352,4.542,0.979l248.976-248.978h63.454V512.876z M336.909,1205.618
		c1.524,0,2.753-1.231,2.753-2.755c0-1.521-1.229-2.756-2.753-2.756c-1.523,0-2.755,1.235-2.755,2.756
		C334.154,1204.387,335.386,1205.618,336.909,1205.618z M336.913,944.312c-1.523,0-2.759,1.231-2.759,2.755
		c0,1.521,1.236,2.754,2.759,2.754c1.52,0,2.753-1.233,2.753-2.754C339.666,945.543,338.433,944.312,336.913,944.312z
		 M336.909,936.044c6.092,0,11.023,4.934,11.023,11.022c0,5.024-3.364,9.262-7.961,10.59v204.846v7.991v21.778
		c4.597,1.328,7.961,5.567,7.961,10.592c0,6.087-4.939,11.022-11.027,11.022c-6.085,0-11.018-4.936-11.018-11.022
		c0-5.245,3.665-9.638,8.569-10.749l0.004-21.621v-7.991V957.815c-4.908-1.115-8.573-5.502-8.573-10.749
		C325.887,940.978,330.823,936.044,336.909,936.044z M375.487,1205.618c1.521,0,2.755-1.231,2.755-2.755
		c0-1.521-1.234-2.756-2.755-2.756c-1.52,0-2.758,1.235-2.758,2.756C372.729,1204.387,373.967,1205.618,375.487,1205.618z
		 M375.489,944.308c-1.519,0-2.755,1.233-2.755,2.759c0,1.521,1.236,2.754,2.755,2.754c1.523,0,2.757-1.233,2.757-2.754
		C378.246,945.541,377.012,944.308,375.489,944.308z M375.489,936.044c6.088,0,11.027,4.934,11.027,11.022
		c0,5.024-3.368,9.262-7.963,10.59l-0.004,204.841v7.996v21.778c4.595,1.328,7.96,5.562,7.96,10.592
		c0,6.087-4.936,11.022-11.022,11.022c-6.089,0-11.025-4.936-11.025-11.022c0-5.245,3.667-9.638,8.574-10.749v-21.621v-7.996
		l0.004-204.682c-4.906-1.115-8.574-5.502-8.574-10.749C364.466,940.978,369.402,936.044,375.489,936.044z M414.066,1205.616
		c1.52,0,2.751-1.229,2.751-2.753c0-1.521-1.231-2.756-2.751-2.756c-1.527,0-2.757,1.235-2.757,2.756
		C411.309,1204.387,412.539,1205.616,414.066,1205.616z M414.066,944.308c-1.519,0-2.757,1.233-2.757,2.759
		c0,1.52,1.239,2.754,2.757,2.754c1.528,0,2.755-1.234,2.755-2.754C416.822,945.541,415.594,944.308,414.066,944.308z
		 M414.066,936.039c6.091,0,11.022,4.938,11.022,11.027c0,5.022-3.359,9.262-7.96,10.59v204.841v7.996v21.778
		c4.597,1.328,7.957,5.562,7.957,10.592c0,6.087-4.932,11.022-11.019,11.022c-6.093,0-11.022-4.936-11.022-11.022
		c0-5.245,3.661-9.638,8.571-10.753v-21.617v-7.996V957.815c-4.906-1.115-8.57-5.502-8.57-10.749
		C403.046,940.978,407.978,936.039,414.066,936.039z M452.642,1205.616c1.523,0,2.755-1.229,2.755-2.753
		c0-1.522-1.232-2.756-2.755-2.756s-2.76,1.233-2.76,2.756C449.882,1204.387,451.119,1205.616,452.642,1205.616z M452.646,944.308
		c-1.519,0-2.755,1.233-2.755,2.755c0,1.523,1.236,2.758,2.755,2.758s2.751-1.234,2.751-2.758
		C455.397,945.541,454.165,944.308,452.646,944.308z M452.646,936.039c6.088,0,11.022,4.938,11.022,11.023
		c0,5.026-3.363,9.266-7.961,10.594l-0.004,204.841v7.996v21.778c4.598,1.324,7.958,5.562,7.958,10.592
		c0,6.087-4.93,11.021-11.019,11.021s-11.023-4.934-11.023-11.021c0-5.248,3.666-9.638,8.574-10.753v-21.617v-7.996l0.004-204.682
		c-4.912-1.115-8.574-5.508-8.574-10.749C441.624,940.978,446.558,936.039,452.646,936.039z M963.259,526.738
		c1.524,0,2.758-1.235,2.758-2.755c0-1.522-1.233-2.76-2.758-2.76c-1.522,0-2.754,1.237-2.754,2.76
		C960.505,525.503,961.736,526.738,963.259,526.738z M963.259,535.006c-6.085,0-11.021-4.939-11.021-11.025
		c0-6.089,4.937-11.021,11.021-11.021c1.621,0,3.152,0.346,4.538,0.972l61.595-61.592h89.773v5.511l-89.773-0.002l-58.339,58.337
		c1.993,1.997,3.231,4.752,3.231,7.798C974.284,530.066,969.349,535.006,963.259,535.006z M886.1,422.024
		c1.527,0,2.755-1.233,2.755-2.756c0-1.521-1.228-2.757-2.755-2.757c-1.519,0-2.753,1.234-2.753,2.757
		S884.581,422.024,886.1,422.024z M886.1,430.292c-6.088-0.003-11.022-4.937-11.022-11.023c0-6.09,4.935-11.021,11.022-11.021
		c5.027,0,9.271,3.362,10.596,7.958l222.47,0.002v5.515l-222.316-0.004C895.737,426.628,891.349,430.292,886.1,430.292z
		 M930.191,499.182c1.524,0,2.756-1.235,2.756-2.755c0-1.522-1.231-2.758-2.756-2.758c-1.522,0-2.753,1.235-2.753,2.758
		C927.438,497.946,928.669,499.182,930.191,499.182z M930.191,507.447c-6.088,0-11.024-4.938-11.024-11.021
		c0-6.09,4.937-11.023,11.024-11.023c1.618,0,3.15,0.352,4.536,0.975l56.085-56.086l128.353,0.004v5.509l-128.353-0.002
		l-52.83,52.828c1.998,1.994,3.236,4.75,3.236,7.796C941.219,502.514,936.278,507.447,930.191,507.447z M886.1,383.445
		c1.527,0,2.755-1.232,2.755-2.757c0-1.518-1.228-2.754-2.755-2.754c-1.519,0-2.753,1.236-2.753,2.754
		C883.347,382.213,884.581,383.445,886.1,383.445z M886.1,391.712c-6.088,0-11.022-4.934-11.022-11.023
		c0-6.084,4.935-11.021,11.022-11.021c5.027,0,9.271,3.364,10.596,7.961l222.47,0.005v5.509l-222.316-0.002
		C895.737,388.051,891.349,391.716,886.1,391.712z M142.998,160.626c1.523,0,2.754-1.233,2.754-2.755
		c0-1.524-1.231-2.754-2.754-2.754c-1.519,0-2.755,1.23-2.755,2.754C140.243,159.393,141.479,160.626,142.998,160.626z
		 M142.998,168.893c-6.088,0-11.021-4.934-11.021-11.025c0-3.039,1.233-5.797,3.226-7.791L-110.515-95.645h-358.722h-7.995h-28.3
		v-5.511h28.3h7.995h358.722L138.46,147.822c1.387-0.627,2.921-0.975,4.537-0.975c6.088,0,11.022,4.936,11.022,11.02
		C154.02,163.959,149.086,168.893,142.998,168.893z M-245.001-352.498c-1.076-1.078-2.82-1.078-3.896,0
		c-1.077,1.078-1.077,2.818,0,3.896c1.075,1.076,2.82,1.076,3.896,0C-243.926-349.68-243.926-351.42-245.001-352.498z
		 M-505.532-350.548h247.561c0-2.823,1.076-5.643,3.228-7.796c4.303-4.305,11.281-4.305,15.587,0c4.306,4.303,4.306,11.281,0,15.589
		c-4.307,4.303-11.284,4.303-15.587,0c-1.144-1.144-1.984-2.475-2.52-3.899h-248.269V-350.548z M-217.723-325.22
		c-1.076-1.076-2.819-1.076-3.897,0c-1.078,1.078-1.078,2.82,0,3.894c1.078,1.083,2.821,1.083,3.897,0
		C-216.646-322.4-216.646-324.143-217.723-325.22z M-505.532-323.272h274.838c0-2.82,1.076-5.641,3.228-7.791
		c4.305-4.307,11.283-4.307,15.59,0c4.302,4.3,4.302,11.28,0,15.589c-4.307,4.302-11.285,4.302-15.59,0
		c-1.142-1.146-1.984-2.482-2.52-3.897h-275.546V-323.272z M-190.443-297.941c-1.078-1.074-2.82-1.074-3.9,0
		c-1.073,1.078-1.073,2.823,0,3.896c1.08,1.078,2.822,1.078,3.9,0C-189.367-295.118-189.367-296.864-190.443-297.941z
		 M-505.532-295.992h302.117c0-2.823,1.075-5.641,3.231-7.794c4.302-4.305,11.28-4.305,15.587,0c4.302,4.301,4.302,11.28,0,15.587
		c-4.308,4.305-11.286,4.305-15.587,0c-1.145-1.144-1.984-2.477-2.521-3.899h-302.828V-295.992z M-163.163-270.664
		c-1.081-1.07-2.823-1.07-3.899,0c-1.078,1.076-1.078,2.821,0,3.899c1.076,1.078,2.82,1.078,3.899,0
		C-162.09-267.843-162.09-269.588-163.163-270.664z M-505.532-268.716h329.396c0-2.82,1.077-5.639,3.227-7.791
		c4.305-4.305,11.285-4.305,15.59,0c4.305,4.305,4.305,11.282,0,15.591c-4.305,4.3-11.285,4.3-15.59,0
		c-1.142-1.146-1.982-2.479-2.519-3.899h-330.104V-268.716z M917.932,978.064c1.522,0,2.757,1.233,2.757,2.756
		c0,1.523-1.234,2.76-2.757,2.76c-1.524,0-2.756-1.236-2.756-2.76C915.176,979.298,916.407,978.064,917.932,978.064z
		 M1119.165,1168.203h-13.855L925.729,988.616c1.988-1.995,3.226-4.75,3.226-7.792c0-6.087-4.938-11.022-11.022-11.022
		c-6.087,0-11.027,4.936-11.027,11.022c0,6.086,4.94,11.02,11.027,11.02c1.615,0,3.153-0.348,4.537-0.973l182.841,182.84h13.855
		V1168.203z M879.355,978.064c1.519,0,2.751,1.233,2.751,2.76c0,1.52-1.232,2.756-2.751,2.756c-1.527,0-2.76-1.236-2.76-2.756
		C876.596,979.298,877.828,978.064,879.355,978.064z M1119.165,1190.245h-30.39L887.146,988.616c1.999-1.995,3.228-4.75,3.228-7.792
		c0-6.087-4.935-11.022-11.019-11.022c-6.093,0-11.027,4.936-11.027,11.022c0,6.086,4.935,11.02,11.027,11.02
		c1.616,0,3.15-0.348,4.533-0.973l204.887,204.885h30.39V1190.245z M840.775,978.064c1.522,0,2.756,1.233,2.756,2.76
		c0,1.52-1.233,2.756-2.756,2.756c-1.523,0-2.757-1.236-2.757-2.756C838.019,979.298,839.252,978.064,840.775,978.064z
		 M1119.165,1212.291h-46.921L848.566,988.616c1.997-1.995,3.228-4.75,3.228-7.792c0-6.087-4.932-11.022-11.019-11.022
		c-6.088,0-11.021,4.936-11.021,11.022c0,6.086,4.933,11.02,11.021,11.02c1.613,0,3.154-0.348,4.531-0.973l226.938,226.931h46.921
		V1212.291z M802.193,978.064c1.527,0,2.762,1.233,2.762,2.76c0,1.52-1.234,2.756-2.762,2.756c-1.519,0-2.751-1.236-2.751-2.756
		C799.442,979.298,800.675,978.064,802.193,978.064z M1119.165,1234.336h-63.454l-245.716-245.72
		c1.988-1.995,3.228-4.75,3.228-7.792c0-6.087-4.937-11.022-11.029-11.022c-6.086,0-11.019,4.936-11.019,11.022
		c0,6.086,4.933,11.02,11.019,11.02c1.621,0,3.159-0.348,4.542-0.973l248.976,248.975h63.454V1234.336z"/>
</g>
</svg>
