<?xml version="1.0" encoding="utf-8"?>
<!-- Generator: Adobe Illustrator 16.0.3, SVG Export Plug-In . SVG Version: 6.00 Build 0)  -->
<!DOCTYPE svg PUBLIC "-//W3C//DTD SVG 1.1//EN" "http://www.w3.org/Graphics/SVG/1.1/DTD/svg11.dtd">
<svg version="1.1" id="Layer_1" xmlns="http://www.w3.org/2000/svg" xmlns:xlink="http://www.w3.org/1999/xlink" x="0px" y="0px"
	 width="486.112px" height="687.963px" viewBox="0 0 486.112 687.963" enable-background="new 0 0 486.112 687.963"
	 xml:space="preserve">
<g>
	<linearGradient id="SVGID_1_" gradientUnits="userSpaceOnUse" x1="23.2334" y1="342.3169" x2="458.2329" y2="342.3169">
		<stop  offset="0" style="stop-color:#00A14B"/>
		<stop  offset="1" style="stop-color:#39B54A"/>
	</linearGradient>
	<path fill="url(#SVGID_1_)" d="M441.914,135.822l-16.311-18.12l-7.229,1.54l8.05,37.9c1.79,8.41-3.57,16.68-11.99,18.46l-2.76,0.59
		c-8.4,1.79-16.68-3.58-18.46-11.98l-8.05-37.91l-7.24,1.54l-7.55,23.18l-7.521,23.19l16.32,18.12l16.31,18.12l4.19-0.89
		c0.4,2.28,0.45,4.91,0.05,8.06c-2.069,16.89-20.97,35.16-53.72,39.03c-2.8-4.36-7.7-7.24-13.25-7.24h-61.24v-6.51h31.87
		c9.061,0,16.43-7.35,16.43-16.41v-27.84h9.631c4.88,0,8.84-3.97,8.84-8.85v-35.75c0-4.88-3.96-8.84-8.84-8.84h-9.631v-35.05
		c0-9.06-7.359-16.42-16.43-16.42h-60.72v-9.84c12.359-1.98,21.81-12.69,21.81-25.62c0-14.33-11.609-25.94-25.939-25.94
		c-14.34,0-25.95,11.61-25.95,25.94c0,12.56,8.91,23.02,20.77,25.43v10.03h-60.55c-9.04,0-16.4,7.35-16.4,16.42v35.05h-9.75
		c-4.89,0-8.84,3.97-8.84,8.84v35.75c0,4.88,3.96,8.85,8.84,8.85h9.76v27.84c0,9.06,7.35,16.41,16.41,16.41h31.33v6.51h-61.26
		c-5.11,0-9.67,2.45-12.56,6.23c-42.84,5.5-82.54,31.11-87.71,73.26c-0.82,6.59-0.85,13.7,0.6,21.061l-4.93,1.05l-7.53,23.18
		l-7.53,23.19l16.31,18.12l16.31,18.109l7.25-1.54l-8.05-37.91c-1.8-8.399,3.57-16.659,11.98-18.449l2.76-0.591
		c8.41-1.789,16.68,3.58,18.46,12l8.05,37.9l7.25-1.54l7.54-23.18l7.53-23.2l-16.32-18.11l-16.31-18.12l-4.2,0.891
		c-0.39-2.28-0.44-4.9-0.05-8.061c1.9-15.399,17.77-31.95,45.38-37.68v141.26c0,8.7,7.06,15.761,15.77,15.761h2.53v144.449h-9.79
		v40.78h-9.03v14.021h102.54v-14.021h-8.609v-40.78h-7.58V453.042h49.22v144.449h-9.79v40.78h-9.03v14.021h102.54v-14.021h-8.6
		v-40.78h-7.59V453.042h3.05c8.7,0,15.76-7.061,15.76-15.761v-141.3c43.82-4.78,85.05-30.57,90.33-73.57
		c0.811-6.6,0.86-13.7-0.6-21.05l4.91-1.05l7.55-23.19l7.529-23.19L441.914,135.822z M257.694,128.732c2.05-2,4.84-3.24,7.92-3.24
		c4.02,0,7.54,2.1,9.56,5.26c1.13,1.77,1.81,3.85,1.81,6.1c0,6.29-5.1,11.37-11.369,11.37c-6.261,0-11.36-5.08-11.36-11.37
		C254.253,133.672,255.583,130.802,257.694,128.732z M233.343,73.242v0.85c-6.649-2.17-11.46-8.43-11.46-15.82
		c0-9.19,7.45-16.63,16.63-16.63c9.2,0,16.65,7.45,16.65,16.64c0,7.76-5.32,14.29-12.51,16.13v-1.17c0-3.09-2.41-4.65-4.66-4.65
		C235.763,68.592,233.343,70.152,233.343,73.242z M210.483,125.492c6.271,0,11.37,5.09,11.37,11.36c0,6.29-5.1,11.37-11.37,11.37
		c-6.27,0-11.359-5.08-11.359-11.37C199.124,130.582,204.213,125.492,210.483,125.492z M180.553,172.012h115
		c0,29.96-25.74,57.51-57.5,57.51S180.553,201.972,180.553,172.012z M212.864,420.302h-44.16v-45.04h44.16V420.302z
		 M259.904,420.302h-40.04v-52.2h-51.16v-40.04h91.2V420.302z M305.904,420.302h-40.04v-98.2h-97.16v-40.04h137.2V420.302z"/>
</g>
</svg>
